<svg version="1.1" id="Layer_1" xmlns="http://www.w3.org/2000/svg" xmlns:xlink="http://www.w3.org/1999/xlink" x="0px" y="0px"
	 width="100%" viewBox="0 0 1024 1024" enable-background="new 0 0 1024 1024" xml:space="preserve">
<path fill="#FDFBFA" opacity="1.000000" stroke="none" 
	d="
M677.000000,1025.000000 
	C451.333344,1025.000000 226.166672,1025.000000 1.000000,1025.000000 
	C1.000000,683.666687 1.000000,342.333344 1.000000,1.000000 
	C342.333344,1.000000 683.666687,1.000000 1025.000000,1.000000 
	C1025.000000,342.333344 1025.000000,683.666687 1025.000000,1025.000000 
	C909.166687,1025.000000 793.333313,1025.000000 677.000000,1025.000000 
M631.712219,525.139465 
	C631.919495,524.790344 632.126770,524.441162 632.751221,523.960083 
	C632.980042,523.744690 633.082825,523.480286 633.598267,522.841797 
	C633.850403,522.278625 634.102478,521.715454 634.180969,521.061523 
	C634.180969,521.061523 634.125122,521.249329 634.720154,521.137390 
	C634.909241,520.783142 635.098389,520.428833 635.710022,519.960510 
	C635.961670,519.764404 636.077454,519.507141 636.636353,518.811890 
	C637.428406,518.193359 638.220459,517.574768 638.988892,516.981201 
	C638.988892,516.981201 639.018921,516.998047 638.935120,517.925232 
	C639.577393,527.692200 640.160889,537.463379 640.872681,547.225281 
	C643.196289,579.093201 645.618164,610.953979 647.905640,642.824524 
	C650.641968,680.948425 653.268555,719.080322 656.008118,757.204041 
	C656.090942,758.356934 656.905457,759.457153 657.378845,760.582031 
	C658.435242,760.028381 659.491577,759.474731 661.301819,758.923279 
	C664.834717,756.851990 668.490906,754.963440 671.877991,752.676208 
	C683.284851,744.973083 694.600891,737.135254 705.942444,729.335449 
	C717.063965,721.687012 728.174927,714.023193 739.288818,706.363647 
	C754.906006,695.600525 770.593994,684.938110 786.111511,674.033020 
	C795.835022,667.199646 805.301270,660.000183 815.111206,652.066406 
	C813.585022,635.116394 812.164185,618.155945 810.491638,601.220398 
	C809.551880,591.704895 808.042297,582.245972 807.080078,572.732239 
	C806.397339,565.981812 806.467896,559.153320 805.736206,552.410217 
	C803.630981,533.007935 801.105225,513.650330 799.097534,494.238678 
	C797.426697,478.084503 796.370117,461.867493 794.800415,445.701721 
	C794.251465,440.048401 792.983643,434.464813 791.989441,428.387207 
	C791.989441,428.387207 791.784607,427.969360 791.875427,427.180481 
	C791.892456,426.125549 791.909485,425.070618 792.173584,423.167206 
	C791.397583,415.770721 790.621582,408.374207 789.969482,400.199463 
	C787.937439,381.479980 785.905396,362.760529 784.053345,343.241241 
	C783.448853,337.080688 782.931213,330.909088 782.153198,324.770538 
	C782.025574,323.763184 780.753052,322.900879 779.710205,321.339020 
	C774.899963,318.411865 770.089722,315.484711 764.792786,312.095245 
	C759.557312,309.319458 754.321899,306.543671 749.077148,303.882416 
	C749.077148,303.882416 749.187439,303.850372 748.814087,303.281952 
	C747.564087,302.790802 746.314087,302.299683 745.052673,301.914459 
	C745.052673,301.914459 745.157715,301.896667 744.868042,301.323761 
	C744.258057,301.167572 743.648071,301.011414 742.706543,300.216675 
	C737.338867,297.485199 731.969055,294.757904 726.604248,292.020905 
	C722.690369,290.024139 718.783020,288.014496 714.782410,285.340057 
	C713.395752,284.401184 712.009094,283.462311 710.428589,282.328613 
	C710.428589,282.328613 710.155029,282.301758 709.705872,281.914093 
	C707.541931,280.813263 705.377991,279.712463 703.258606,278.583466 
	C703.258606,278.583466 703.250854,278.531311 702.800415,278.064087 
	C699.932556,276.584015 697.064758,275.103943 694.194519,273.767853 
	C694.194519,273.767853 694.312988,273.686035 694.042969,273.208191 
	C693.384705,272.907166 692.726501,272.606140 691.337280,272.029388 
	C688.874695,270.586945 686.476685,269.017548 683.936890,267.727051 
	C677.656616,264.535889 671.023499,261.928497 665.099243,258.188324 
	C661.490540,255.910049 658.862610,256.103424 655.873535,258.331787 
	C648.872986,263.550690 641.928223,268.844452 634.291992,273.998840 
	C633.089111,274.820831 631.886230,275.642792 630.533203,276.485413 
	C630.533203,276.485413 630.393738,276.544739 629.817261,276.808960 
	C619.773987,283.999298 609.730774,291.189667 599.463501,298.404388 
	C599.463501,298.404388 599.283386,298.539795 598.738403,298.789673 
	C597.049988,300.069122 595.361572,301.348572 593.648926,302.573181 
	C593.648926,302.573181 593.589905,302.562469 592.998413,302.788025 
	C591.885315,303.691437 590.772156,304.594849 589.543213,305.520569 
	C589.543213,305.520569 589.427734,305.544037 588.844543,305.804626 
	C585.789612,308.077911 582.734619,310.351196 579.634094,312.579712 
	C579.634094,312.579712 579.571289,312.567780 578.962097,312.815155 
	C576.881287,314.438965 574.800415,316.062775 572.699158,317.585999 
	C572.699158,317.585999 572.597168,317.575439 571.976257,317.812561 
	C569.873962,319.429779 567.771667,321.046997 565.746521,322.594482 
	C565.746521,322.594482 565.643311,322.581757 565.036560,322.786530 
	C563.924316,323.678101 562.812073,324.569672 561.502014,325.445312 
	C561.502014,325.445312 561.326599,325.537994 560.849548,325.766357 
	C560.137878,326.312988 559.426270,326.859619 558.653992,327.495544 
	C558.653992,327.495544 558.564880,327.556580 557.978638,327.779297 
	C556.880432,328.657562 555.782288,329.535797 554.512329,330.451202 
	C554.512329,330.451202 554.361633,330.541687 553.845459,330.769867 
	C553.116150,331.387085 552.386841,332.004303 551.689819,332.727905 
	C551.689819,332.727905 551.765442,332.646454 551.109009,332.774414 
	C550.993774,333.135406 550.878601,333.496399 550.654236,333.482483 
	C550.654236,333.482483 550.265808,333.522827 549.768799,333.720917 
	C549.073608,334.287354 548.378418,334.853790 547.495483,335.447540 
	C547.495483,335.447540 547.335510,335.549713 546.768677,335.806488 
	C543.736145,338.056946 540.703613,340.307404 537.590576,342.546021 
	C537.590576,342.546021 537.510071,342.533813 536.957458,342.762421 
	C536.208801,343.420624 535.460205,344.078796 534.797302,344.664825 
	C534.797302,344.664825 534.696228,344.616364 534.045044,344.836212 
	C530.902405,347.574310 527.759827,350.312378 523.832947,353.042084 
	C520.816467,354.777893 517.800049,356.513672 514.251465,358.555664 
	C510.356354,355.417267 506.048248,351.585144 501.380585,348.257324 
	C490.289062,340.349670 479.079803,332.603638 467.818085,324.939301 
	C458.439575,318.556641 448.831085,312.510315 439.492218,306.071716 
	C433.384491,301.860809 427.714447,297.014343 421.600708,292.812988 
	C412.802948,286.767212 403.637299,281.252960 394.893768,275.133148 
	C386.390839,269.181732 378.173340,262.816345 369.937469,256.493469 
	C367.625275,254.718307 366.259888,255.424118 364.021027,256.867157 
	C359.569427,259.736389 354.653046,261.884460 349.291626,264.504395 
	C346.451965,266.149139 343.612305,267.793854 340.671326,269.499847 
	C340.671326,269.499847 340.563629,269.549011 339.917297,269.791931 
	C332.210724,274.143494 324.504150,278.495056 316.913727,282.865814 
	C316.913727,282.865814 316.886993,282.751190 316.297485,282.901367 
	C315.464355,283.384003 314.631195,283.866669 313.621979,284.401337 
	C313.621979,284.401337 313.475342,284.511871 312.836182,284.738647 
	C310.495941,286.115387 308.155670,287.492157 305.936493,288.904053 
	C305.936493,288.904053 305.937805,288.777954 305.334137,288.923553 
	C304.843781,289.255310 304.353424,289.587067 303.952820,289.952148 
	C303.952820,289.952148 303.916443,289.863586 303.230682,290.034882 
	C300.434967,291.652344 297.639252,293.269806 294.944794,294.920227 
	C294.944794,294.920227 294.949371,294.813904 294.356171,294.953339 
	C293.867035,295.282318 293.377869,295.611267 292.972015,295.976044 
	C292.972015,295.976044 292.933807,295.893829 292.251282,296.046906 
	C289.755798,297.598999 287.260345,299.151123 284.698456,300.531708 
	C284.698456,300.531708 284.514526,300.534241 283.884460,300.774994 
	C281.192108,302.305634 278.499756,303.836273 275.727509,305.461182 
	C275.727509,305.461182 275.665985,305.568298 274.970734,305.707336 
	C272.900269,306.972748 270.829803,308.238190 268.650238,309.504822 
	C268.650238,309.504822 268.541351,309.511292 267.945770,309.557678 
	C266.905090,310.161316 265.864380,310.764954 264.732880,311.463745 
	C264.732880,311.463745 264.673889,311.581299 263.990784,311.738464 
	C261.277985,313.257507 258.565216,314.776520 255.722672,316.397400 
	C255.722672,316.397400 255.648361,316.544678 255.056625,316.595856 
	C254.616364,316.957214 254.176102,317.318604 253.798737,317.605286 
	C253.798737,317.605286 253.708435,317.568146 253.035980,317.711365 
	C251.287384,318.756042 249.538773,319.800720 247.894287,320.858337 
	C247.894287,320.858337 247.843231,320.766693 247.095383,320.978790 
	C246.473251,322.030273 245.415604,323.034027 245.294281,324.140442 
	C243.452423,340.938110 241.674332,357.743378 240.002121,374.558899 
	C238.390366,390.766327 236.984543,406.994263 235.363098,423.200653 
	C233.994278,436.882324 232.375839,450.538940 230.997772,464.219727 
	C229.698914,477.114471 228.639130,490.033234 227.348633,502.928864 
	C225.629761,520.105042 223.748566,537.264832 222.015335,554.439575 
	C220.813721,566.346375 219.760239,578.268066 218.611923,590.180359 
	C216.666183,610.365173 214.647003,630.543213 212.852173,650.741333 
	C212.731354,652.101013 214.232635,653.604797 214.987961,654.992432 
	C214.987961,654.992432 214.949585,655.024414 215.323639,655.498901 
	C216.171356,656.025696 217.019073,656.552551 218.196503,657.681763 
	C224.169388,661.372192 230.142288,665.062622 236.777954,668.854248 
	C236.987549,668.776733 237.197144,668.699219 237.620255,668.800110 
	C237.572540,669.076660 237.524826,669.353149 237.177322,670.005798 
	C242.650558,673.816772 248.123779,677.627686 253.656982,681.426941 
	C253.656982,681.426941 253.684479,681.372437 254.080200,681.904114 
	C256.877350,683.761902 259.674469,685.619629 262.601776,687.582275 
	C262.601776,687.582275 262.751495,687.656494 263.180939,688.026794 
	C263.998810,688.511230 264.816681,688.995605 265.969299,689.438171 
	C265.969299,689.438171 265.632538,689.447449 266.039612,689.956238 
	C269.803772,692.464783 273.567932,694.973328 277.474121,697.573792 
	C277.474121,697.573792 277.625641,697.648987 277.992157,698.031067 
	C278.610107,698.385193 279.228058,698.739319 280.194641,699.689697 
	C284.266083,702.084656 288.464874,704.289185 292.384857,706.910645 
	C303.931915,714.632263 315.405365,722.465759 326.838501,730.355652 
	C339.604553,739.165283 352.294830,748.084839 365.415466,757.323486 
	C365.997498,757.712280 366.579529,758.101074 367.402802,758.626831 
	C367.402802,758.626831 367.667572,758.544006 367.898621,759.118103 
	C369.076050,759.929382 370.253479,760.740662 371.786621,761.796997 
	C372.885406,747.048279 373.982819,732.830750 374.995148,718.607178 
	C376.448425,698.187927 377.782654,677.760010 379.270874,657.343323 
	C381.479431,627.044739 383.795807,596.754089 386.031281,566.457458 
	C387.121155,551.686829 388.086395,536.906799 389.240051,522.141357 
	C389.373413,520.434753 390.354858,518.794312 390.979431,517.054688 
	C390.979431,517.054688 390.903198,517.040344 391.009460,517.602112 
	C391.344482,518.059875 391.679474,518.517700 392.146637,519.644165 
	C400.373230,530.546082 408.626862,541.427734 416.821472,552.353638 
	C444.638428,589.441956 472.428894,626.550110 500.244049,663.639771 
	C504.860352,669.795349 509.549683,675.896179 514.500305,682.410461 
	C524.889893,667.881226 534.880249,653.910217 545.155151,639.453491 
	C545.414917,638.968933 545.674622,638.484436 546.537048,637.912048 
	C546.713806,637.812134 546.890564,637.712280 547.665833,637.428284 
	C549.585449,634.750610 551.505066,632.072937 553.422974,629.346985 
	C553.422974,629.346985 553.374817,629.351868 553.895447,629.061768 
	C554.422180,628.264648 554.948914,627.467590 555.498352,626.368408 
	C555.498352,626.368408 555.206055,626.288879 555.854431,626.381226 
	C556.017822,625.994080 556.181213,625.606873 556.294800,625.319702 
	C556.294800,625.319702 556.405151,625.337036 556.932495,624.999451 
	C557.757080,623.783447 558.581665,622.567383 559.408264,621.245422 
	C559.408264,621.245422 559.337341,621.324097 559.891113,620.977966 
	C561.732910,618.444336 563.574707,615.910706 565.416809,613.310059 
	C565.416809,613.310059 565.353271,613.331726 565.906433,612.984741 
	C569.727539,607.725952 573.548706,602.467163 577.232178,597.242249 
	C577.232178,597.242249 577.338196,597.336365 577.903381,596.994019 
	C579.745667,594.469971 581.587952,591.945984 583.404846,589.391296 
	C583.404846,589.391296 583.384521,589.357056 583.890625,589.062988 
	C584.316101,588.409363 584.741516,587.755737 585.073914,587.066406 
	C585.073914,587.066406 585.106201,587.160706 585.689697,586.818726 
	C588.941284,582.365967 592.192871,577.913147 595.426758,573.311523 
	C595.426758,573.311523 595.276917,573.317078 595.848145,573.141541 
	C595.891724,572.769592 595.935303,572.397644 596.204773,571.375488 
	C607.804077,556.244080 619.403320,541.112732 631.293213,525.691345 
	C631.293213,525.691345 631.403259,525.295715 631.282959,525.109619 
	C631.282959,525.109619 631.107117,525.244507 631.712219,525.139465 
z"/>
<path fill="#EA3A32" opacity="1.000000" stroke="none" 
	d="
M633.059692,523.166809 
	C633.082825,523.480286 632.980042,523.744690 632.253296,524.114502 
	C631.539307,524.594177 631.323242,524.919312 631.107117,525.244507 
	C631.107117,525.244507 631.282959,525.109619 631.128418,525.169861 
	C630.842102,525.272095 630.710266,525.314148 630.578430,525.356201 
	C630.719788,525.564575 630.861145,525.772949 631.002563,525.981323 
	C619.403320,541.112732 607.804077,556.244080 595.851257,571.828857 
	C595.424133,572.627197 595.350525,572.972107 595.276917,573.317078 
	C595.276917,573.317078 595.426758,573.311523 595.066345,573.263672 
	C589.876404,576.742249 586.636597,581.363098 585.106201,587.160706 
	C585.106201,587.160706 585.073914,587.066406 584.756836,587.083252 
	C584.088013,587.852478 583.736267,588.604736 583.384521,589.357056 
	C583.384521,589.357056 583.404846,589.391296 583.045288,589.296753 
	C580.903198,591.913574 579.120667,594.625000 577.338196,597.336365 
	C577.338196,597.336365 577.232178,597.242249 576.929565,597.255127 
	C574.902100,598.926270 572.815308,600.346191 571.531616,602.295105 
	C569.218506,605.806946 567.386353,609.635498 565.353271,613.331726 
	C565.353271,613.331726 565.416809,613.310059 565.042847,613.250488 
	C560.955933,614.633057 558.955505,617.197754 559.337341,621.324097 
	C559.337341,621.324097 559.408264,621.245422 559.013184,621.216492 
	C557.880432,622.570740 557.142822,623.953918 556.405151,625.337036 
	C556.405151,625.337036 556.294800,625.319702 556.016602,625.300232 
	C555.560974,625.616821 555.383484,625.952820 555.206055,626.288879 
	C555.206055,626.288879 555.498352,626.368408 555.115601,626.338257 
	C554.280151,627.322632 553.827454,628.337219 553.374756,629.351868 
	C553.374817,629.351868 553.422974,629.346985 553.052734,629.270142 
	C550.810791,631.999634 548.939087,634.806030 547.067383,637.612427 
	C546.890564,637.712280 546.713806,637.812134 545.964966,638.018188 
	C544.850952,638.533569 544.308899,638.942810 543.766907,639.352051 
	C544.134827,639.547791 544.502686,639.743469 544.870605,639.939209 
	C534.880249,653.910217 524.889893,667.881226 514.500305,682.410461 
	C509.549683,675.896179 504.860352,669.795349 500.244049,663.639771 
	C472.428894,626.550110 444.638428,589.441956 416.821472,552.353638 
	C408.626862,541.427734 400.373230,530.546082 392.284454,519.167297 
	C391.915894,518.140442 391.409546,517.590393 390.903198,517.040344 
	C390.903198,517.040344 390.979431,517.054688 390.915985,516.763672 
	C390.235413,515.994873 389.618286,515.517090 388.868469,514.721069 
	C378.030243,499.645081 367.466797,484.781738 356.588562,470.152466 
	C336.118896,442.624481 315.423187,415.264709 294.906860,387.771240 
	C280.336121,368.245361 265.932159,348.595001 251.354401,329.074402 
	C250.346802,327.725189 248.510132,326.995148 247.085693,325.601013 
	C247.355988,323.738800 247.599609,322.252747 247.843231,320.766693 
	C247.843231,320.766693 247.894287,320.858337 248.224533,320.915314 
	C250.272675,319.837585 251.990555,318.702881 253.708435,317.568146 
	C253.708435,317.568146 253.798737,317.605286 254.114746,317.731384 
	C254.836624,317.419891 255.242493,316.982269 255.648346,316.544678 
	C255.648361,316.544678 255.722672,316.397400 255.992065,316.618225 
	C259.065582,315.086456 261.869751,313.333893 264.673889,311.581299 
	C264.673889,311.581299 264.732880,311.463745 264.988953,311.665985 
	C266.343781,311.082581 267.442566,310.296936 268.541351,309.511292 
	C268.541351,309.511292 268.650238,309.504822 269.049591,309.647491 
	C271.521301,308.382874 273.593628,306.975586 275.665985,305.568298 
	C275.665985,305.568298 275.727509,305.461182 275.995117,305.665833 
	C279.224304,304.417999 283.542847,305.063873 284.514526,300.534241 
	C284.514526,300.534241 284.698456,300.531708 285.132477,300.717834 
	C288.553772,300.015503 292.276062,300.207855 292.933807,295.893829 
	C292.933807,295.893829 292.972015,295.976044 293.255127,295.938873 
	C294.008606,295.539093 294.478973,295.176483 294.949371,294.813904 
	C294.949371,294.813904 294.944794,294.920227 295.188843,294.951599 
	C299.208069,294.846436 302.643066,294.146057 303.916443,289.863586 
	C303.916443,289.863586 303.952820,289.952148 304.239807,289.938110 
	C304.997131,289.542023 305.467468,289.160004 305.937805,288.777954 
	C305.937805,288.777954 305.936493,288.904053 306.278931,288.936371 
	C309.454651,288.326782 312.855865,288.558289 313.475342,284.511871 
	C313.475342,284.511871 313.621979,284.401337 313.920105,284.623596 
	C315.107788,284.147614 315.997375,283.449402 316.886993,282.751190 
	C316.886993,282.751190 316.913727,282.865814 317.253357,282.911133 
	C324.917114,279.478027 332.267334,276.051819 339.521606,272.433258 
	C340.183746,272.102966 340.230896,270.539703 340.563629,269.549011 
	C340.563629,269.549011 340.671326,269.499847 340.965454,269.699554 
	C344.149292,268.043030 347.039001,266.186768 349.928711,264.330536 
	C354.653046,261.884460 359.569427,259.736389 364.021027,256.867157 
	C366.259888,255.424118 367.625275,254.718307 369.937469,256.493469 
	C378.173340,262.816345 386.390839,269.181732 394.893768,275.133148 
	C403.637299,281.252960 412.802948,286.767212 421.600708,292.812988 
	C427.714447,297.014343 433.384491,301.860809 439.492218,306.071716 
	C448.831085,312.510315 458.439575,318.556641 467.818085,324.939301 
	C479.079803,332.603638 490.289062,340.349670 501.380585,348.257324 
	C506.048248,351.585144 510.356354,355.417267 514.251465,358.555664 
	C517.800049,356.513672 520.816467,354.777893 524.528931,352.943359 
	C528.382080,350.101898 531.539124,347.359131 534.696228,344.616364 
	C534.696228,344.616364 534.797302,344.664825 535.151855,344.780090 
	C536.174377,344.108154 536.842224,343.320984 537.510071,342.533813 
	C537.510071,342.533813 537.590576,342.546021 538.008179,342.692993 
	C542.893860,342.240906 545.891602,339.844788 547.335510,335.549713 
	C547.335510,335.549713 547.495483,335.447540 547.959045,335.622314 
	C549.036987,335.039001 549.651367,334.280914 550.265808,333.522827 
	C550.265808,333.522827 550.654236,333.482483 550.998047,333.592590 
	C551.483032,333.350586 551.624268,332.998535 551.765442,332.646454 
	C551.765442,332.646454 551.689819,332.727905 552.068604,332.791321 
	C553.085449,332.083710 553.723511,331.312683 554.361633,330.541687 
	C554.361633,330.541687 554.512329,330.451202 554.963501,330.624573 
	C556.464783,329.717468 557.514832,328.637024 558.564880,327.556580 
	C558.564880,327.556580 558.653992,327.495544 558.943604,327.686920 
	C559.930969,327.098206 560.628784,326.318115 561.326599,325.537994 
	C561.326599,325.537994 561.502014,325.445312 561.968811,325.625305 
	C563.504822,324.730804 564.574036,323.656250 565.643311,322.581726 
	C565.643311,322.581757 565.746521,322.594482 566.097168,322.733887 
	C569.516663,322.290131 572.661987,321.795807 572.597168,317.575439 
	C572.597168,317.575439 572.699158,317.585999 573.096313,317.738159 
	C576.521667,317.260590 579.701599,316.804199 579.571289,312.567780 
	C579.571289,312.567780 579.634094,312.579712 580.041321,312.720764 
	C584.552856,311.786133 588.567078,310.599792 589.427734,305.544037 
	C589.427734,305.544037 589.543213,305.520569 589.979980,305.669861 
	C591.474487,304.733582 592.532227,303.648010 593.589905,302.562469 
	C593.589905,302.562469 593.648926,302.573181 594.050293,302.720825 
	C596.810364,302.260590 600.150269,302.747986 599.283386,298.539795 
	C599.283386,298.539795 599.463501,298.404388 599.929138,298.591797 
	C601.193542,298.644653 602.163757,298.756714 602.765381,298.338531 
	C611.723999,292.112091 620.658264,285.849274 629.505737,279.466797 
	C630.162537,278.992981 630.114197,277.541626 630.393677,276.544739 
	C630.393738,276.544739 630.533203,276.485413 630.956909,276.646790 
	C632.574036,275.908081 633.767456,275.007996 634.960876,274.107910 
	C641.928223,268.844452 648.872986,263.550690 655.873535,258.331787 
	C658.862610,256.103424 661.490540,255.910049 665.099243,258.188324 
	C671.023499,261.928497 677.656616,264.535889 683.936890,267.727051 
	C686.476685,269.017548 688.874695,270.586945 691.771118,272.479492 
	C692.907654,273.181732 693.610291,273.433868 694.312988,273.686035 
	C694.312988,273.686035 694.194519,273.767853 694.240662,274.063110 
	C697.274841,275.749329 700.262817,277.140320 703.250854,278.531311 
	C703.250854,278.531311 703.258606,278.583466 703.269592,278.954590 
	C705.572083,280.317719 707.863525,281.309753 710.155029,282.301758 
	C710.155029,282.301758 710.428589,282.328613 710.356689,282.771301 
	C711.814087,284.146179 713.343445,285.078400 714.872803,286.010620 
	C718.783020,288.014496 722.690369,290.024139 726.604248,292.020905 
	C731.969055,294.757904 737.338867,297.485199 743.017212,300.828003 
	C743.937805,301.591766 744.547791,301.744202 745.157715,301.896667 
	C745.157715,301.896667 745.052673,301.914459 745.126831,302.168030 
	C746.529785,302.897827 747.858582,303.374084 749.187439,303.850372 
	C749.187439,303.850372 749.077148,303.882416 749.148682,304.175049 
	C752.799072,306.934814 756.266846,309.593018 760.013367,311.771667 
	C761.439026,312.600647 763.505249,312.328064 765.279480,312.557556 
	C770.089722,315.484711 774.899963,318.411865 779.823914,322.007294 
	C774.628296,330.267639 769.475769,337.975250 763.982788,345.432068 
	C738.052002,380.633636 712.002930,415.747955 686.046936,450.930939 
	C670.317505,472.251923 654.680786,493.641327 638.639282,515.046448 
	C637.536560,516.458130 636.796997,517.823425 636.057373,519.188721 
	C636.077454,519.507141 635.961670,519.764404 635.214111,520.109131 
	C634.520508,520.588318 634.322815,520.918823 634.125122,521.249329 
	C634.125122,521.249329 634.180969,521.061523 633.937134,521.196899 
	C633.482056,521.943787 633.270874,522.555298 633.059692,523.166809 
z"/>
<path fill="#D8332B" opacity="1.000000" stroke="none" 
	d="
M639.002441,515.000000 
	C654.680786,493.641327 670.317505,472.251923 686.046936,450.930939 
	C712.002930,415.747955 738.052002,380.633636 763.982788,345.432068 
	C769.475769,337.975250 774.628296,330.267639 779.973633,322.323547 
	C780.753052,322.900879 782.025574,323.763184 782.153198,324.770538 
	C782.931213,330.909088 783.448853,337.080688 783.605225,343.743896 
	C783.375244,347.090973 783.691833,349.931946 783.789673,352.780457 
	C783.965149,357.890930 783.752869,363.026520 784.162537,368.114594 
	C784.963013,378.058594 786.002686,387.986267 787.173767,397.893463 
	C787.305847,399.011200 788.919067,399.953857 789.845581,400.977722 
	C790.621582,408.374207 791.397583,415.770721 791.731567,423.675110 
	C791.454590,425.445160 791.619629,426.707245 791.784607,427.969360 
	C791.784607,427.969360 791.989441,428.387207 791.985413,429.034882 
	C792.090454,435.849121 791.959656,442.032379 792.386536,448.176880 
	C792.712952,452.875458 793.753052,457.523834 794.459778,462.196930 
	C794.913574,465.198059 795.439758,468.193024 795.754333,471.209442 
	C796.364624,477.062195 796.822693,482.930695 797.394287,488.787750 
	C797.779053,492.731110 798.365051,496.657440 798.659546,500.606415 
	C799.321960,509.488708 799.716370,518.393127 800.510315,527.262512 
	C800.880310,531.394958 802.181946,535.440063 802.616638,539.571472 
	C803.826294,551.069153 804.744934,562.597290 805.899231,574.101196 
	C806.396362,579.055237 807.420349,583.962402 807.788025,588.921814 
	C808.180359,594.211792 807.823120,599.559021 808.251465,604.844177 
	C809.007202,614.169678 809.897461,623.495605 811.139893,632.766602 
	C812.048279,639.544861 813.611572,646.235352 814.882935,652.964966 
	C805.301270,660.000183 795.835022,667.199646 786.111511,674.033020 
	C770.593994,684.938110 754.906006,695.600525 739.288818,706.363647 
	C728.174927,714.023193 717.063965,721.687012 705.942444,729.335449 
	C694.600891,737.135254 683.284851,744.973083 671.877991,752.676208 
	C668.490906,754.963440 664.834717,756.851990 660.573364,758.982300 
	C659.051636,757.011230 657.864258,755.039856 657.550964,752.938232 
	C656.976379,749.083679 656.942261,745.150269 656.628113,741.254150 
	C656.535950,740.111633 656.107483,738.986206 656.091553,737.849243 
	C655.994141,730.898743 655.971680,723.947144 655.922058,716.995911 
	C655.919678,716.663025 655.924133,716.326721 655.880127,715.998047 
	C654.989197,709.339355 653.771484,702.704956 653.284424,696.017212 
	C652.788879,689.212585 653.014404,682.355713 652.913940,675.521851 
	C652.906677,675.025085 652.827515,674.527954 652.762085,674.033569 
	C651.915955,667.635437 650.766418,661.259583 650.300720,654.834045 
	C649.822632,648.237732 650.221680,641.581238 649.853455,634.972534 
	C649.436340,627.486023 648.665955,620.015808 647.904419,612.553345 
	C647.528198,608.866943 646.610107,605.231018 646.315247,601.542053 
	C645.615967,592.791687 645.148071,584.022949 644.570190,575.262695 
	C644.494873,574.119934 644.236206,572.985596 644.209351,571.843994 
	C644.057312,565.365784 643.953918,558.886536 643.815369,552.407959 
	C643.808655,552.090698 643.574341,551.783447 643.537048,551.460938 
	C642.797852,545.074707 642.144775,538.677612 641.320557,532.302551 
	C640.659241,527.187317 639.793823,522.098572 639.018921,516.998047 
	C639.018921,516.998047 638.988892,516.981201 638.954651,516.644470 
	C638.947754,515.871826 638.975098,515.435913 639.002441,515.000000 
z"/>
<path fill="#D8332B" opacity="1.000000" stroke="none" 
	d="
M247.059006,325.977173 
	C248.510132,326.995148 250.346802,327.725189 251.354401,329.074402 
	C265.932159,348.595001 280.336121,368.245361 294.906860,387.771240 
	C315.423187,415.264709 336.118896,442.624481 356.588562,470.152466 
	C367.466797,484.781738 378.030243,499.645081 388.701508,515.042786 
	C387.844696,521.378845 386.799255,527.053894 386.259674,532.776611 
	C385.671783,539.011719 385.670807,545.299988 385.199738,551.548950 
	C384.625946,559.161011 383.812836,566.754883 383.157898,574.361328 
	C383.104370,574.982910 383.603424,575.638977 383.611603,576.281982 
	C383.625763,577.395630 383.500275,578.517273 383.355286,579.625366 
	C383.023956,582.156860 382.482819,584.671570 382.317841,587.212036 
	C381.886780,593.850342 381.598907,600.498230 381.279907,607.143494 
	C381.110840,610.666016 381.203644,614.214294 380.812469,617.710083 
	C380.028870,624.711975 378.681885,631.662231 378.153290,638.677979 
	C377.657104,645.264038 377.930847,651.907227 377.819763,658.524536 
	C377.809082,659.160156 377.371063,659.779785 377.303802,660.424805 
	C376.930847,664.000854 376.546997,667.577759 376.287415,671.163147 
	C375.820251,677.615845 375.527008,684.081970 374.996246,690.528931 
	C374.465759,696.972717 373.649933,703.393433 373.143951,709.838684 
	C373.005798,711.598511 373.869873,713.443970 373.696289,715.192810 
	C372.935120,722.859924 371.876709,730.497681 371.125549,738.165588 
	C370.937927,740.080750 371.733917,742.078552 371.654694,744.021118 
	C371.499176,747.834351 370.574554,751.671997 370.865112,755.430176 
	C371.100128,758.470093 369.991119,758.794617 367.667572,758.544006 
	C367.667572,758.544006 367.402802,758.626831 367.506531,758.284607 
	C367.302704,757.185913 366.995209,756.429504 366.687683,755.673035 
	C366.131134,756.100830 365.574615,756.528687 365.018097,756.956543 
	C352.294830,748.084839 339.604553,739.165283 326.838501,730.355652 
	C315.405365,722.465759 303.931915,714.632263 292.384857,706.910645 
	C288.464874,704.289185 284.266083,702.084656 280.288422,699.195068 
	C279.463348,698.349915 278.544495,697.999451 277.625671,697.648926 
	C277.625641,697.648987 277.474121,697.573792 277.589783,697.172241 
	C274.987549,692.175903 270.995392,689.681824 265.632538,689.447449 
	C265.632538,689.447449 265.969299,689.438171 265.843811,689.122070 
	C264.729370,688.422791 263.740417,688.039673 262.751495,687.656494 
	C262.751495,687.656494 262.601776,687.582275 262.672302,687.184265 
	C260.739624,683.281250 257.760620,681.408997 253.684479,681.372437 
	C253.684479,681.372437 253.656982,681.426941 253.729050,681.059937 
	C248.359787,677.005127 242.918457,673.317383 237.477112,669.629700 
	C237.524826,669.353149 237.572540,669.076660 237.344131,668.475647 
	C236.750397,668.351807 236.432785,668.552429 236.115173,668.753052 
	C230.142288,665.062622 224.169388,661.372192 218.292343,657.188232 
	C217.241989,656.138000 216.095779,655.581177 214.949585,655.024414 
	C214.949585,655.024414 214.987961,654.992432 214.998917,654.569580 
	C215.650391,647.197632 216.303482,640.249756 216.928818,633.299255 
	C218.294296,618.122192 219.655670,602.944824 220.995316,587.765503 
	C221.307053,584.233215 221.413834,580.680115 221.813431,577.159058 
	C222.382385,572.145813 223.229675,567.163940 223.781174,562.149170 
	C224.299194,557.438843 224.494949,552.693298 225.002319,547.981506 
	C225.534866,543.036133 226.478622,538.128540 226.856476,533.174927 
	C227.232544,528.244751 226.748596,523.233398 227.323166,518.337524 
	C228.226273,510.642487 230.044846,503.050049 230.840622,495.348541 
	C231.707214,486.961609 231.757462,478.493469 232.346222,470.073486 
	C232.636536,465.921600 233.326691,461.796967 233.856567,457.662659 
	C234.483200,452.773376 235.303284,447.901581 235.722702,442.995117 
	C236.131561,438.212097 235.934418,433.375732 236.378265,428.597595 
	C236.913422,422.836273 237.932953,417.121613 238.571991,411.367767 
	C239.010773,407.417114 238.968216,403.409180 239.485504,399.472137 
	C240.107330,394.739471 241.391983,390.083191 241.843582,385.341797 
	C242.328323,380.252441 242.086456,375.098114 242.337357,369.980774 
	C242.519562,366.264496 242.837372,362.540710 243.365051,358.859009 
	C244.083099,353.848999 245.307129,348.903229 245.859360,343.879913 
	C246.512329,337.940155 246.680634,331.947113 247.059006,325.977173 
z"/>
<path fill="#D51612" opacity="1.000000" stroke="none" 
	d="
M247.085693,325.601013 
	C246.680634,331.947113 246.512329,337.940155 245.859360,343.879913 
	C245.307129,348.903229 244.083099,353.848999 243.365051,358.859009 
	C242.837372,362.540710 242.519562,366.264496 242.337357,369.980774 
	C242.086456,375.098114 242.328323,380.252441 241.843582,385.341797 
	C241.391983,390.083191 240.107330,394.739471 239.485504,399.472137 
	C238.968216,403.409180 239.010773,407.417114 238.571991,411.367767 
	C237.932953,417.121613 236.913422,422.836273 236.378265,428.597595 
	C235.934418,433.375732 236.131561,438.212097 235.722702,442.995117 
	C235.303284,447.901581 234.483200,452.773376 233.856567,457.662659 
	C233.326691,461.796967 232.636536,465.921600 232.346222,470.073486 
	C231.757462,478.493469 231.707214,486.961609 230.840622,495.348541 
	C230.044846,503.050049 228.226273,510.642487 227.323166,518.337524 
	C226.748596,523.233398 227.232544,528.244751 226.856476,533.174927 
	C226.478622,538.128540 225.534866,543.036133 225.002319,547.981506 
	C224.494949,552.693298 224.299194,557.438843 223.781174,562.149170 
	C223.229675,567.163940 222.382385,572.145813 221.813431,577.159058 
	C221.413834,580.680115 221.307053,584.233215 220.995316,587.765503 
	C219.655670,602.944824 218.294296,618.122192 216.928818,633.299255 
	C216.303482,640.249756 215.650391,647.197632 214.994675,654.594116 
	C214.232635,653.604797 212.731354,652.101013 212.852173,650.741333 
	C214.647003,630.543213 216.666183,610.365173 218.611923,590.180359 
	C219.760239,578.268066 220.813721,566.346375 222.015335,554.439575 
	C223.748566,537.264832 225.629761,520.105042 227.348633,502.928864 
	C228.639130,490.033234 229.698914,477.114471 230.997772,464.219727 
	C232.375839,450.538940 233.994278,436.882324 235.363098,423.200653 
	C236.984543,406.994263 238.390366,390.766327 240.002121,374.558899 
	C241.674332,357.743378 243.452423,340.938110 245.294281,324.140442 
	C245.415604,323.034027 246.473251,322.030273 247.469299,320.872742 
	C247.599609,322.252747 247.355988,323.738800 247.085693,325.601013 
z"/>
<path fill="#D51612" opacity="1.000000" stroke="none" 
	d="
M367.783081,758.831055 
	C369.991119,758.794617 371.100128,758.470093 370.865112,755.430176 
	C370.574554,751.671997 371.499176,747.834351 371.654694,744.021118 
	C371.733917,742.078552 370.937927,740.080750 371.125549,738.165588 
	C371.876709,730.497681 372.935120,722.859924 373.696289,715.192810 
	C373.869873,713.443970 373.005798,711.598511 373.143951,709.838684 
	C373.649933,703.393433 374.465759,696.972717 374.996246,690.528931 
	C375.527008,684.081970 375.820251,677.615845 376.287415,671.163147 
	C376.546997,667.577759 376.930847,664.000854 377.303802,660.424805 
	C377.371063,659.779785 377.809082,659.160156 377.819763,658.524536 
	C377.930847,651.907227 377.657104,645.264038 378.153290,638.677979 
	C378.681885,631.662231 380.028870,624.711975 380.812469,617.710083 
	C381.203644,614.214294 381.110840,610.666016 381.279907,607.143494 
	C381.598907,600.498230 381.886780,593.850342 382.317841,587.212036 
	C382.482819,584.671570 383.023956,582.156860 383.355286,579.625366 
	C383.500275,578.517273 383.625763,577.395630 383.611603,576.281982 
	C383.603424,575.638977 383.104370,574.982910 383.157898,574.361328 
	C383.812836,566.754883 384.625946,559.161011 385.199738,551.548950 
	C385.670807,545.299988 385.671783,539.011719 386.259674,532.776611 
	C386.799255,527.053894 387.844696,521.378845 388.834229,515.361084 
	C389.618286,515.517090 390.235413,515.994873 390.897827,516.797913 
	C390.354858,518.794312 389.373413,520.434753 389.240051,522.141357 
	C388.086395,536.906799 387.121155,551.686829 386.031281,566.457458 
	C383.795807,596.754089 381.479431,627.044739 379.270874,657.343323 
	C377.782654,677.760010 376.448425,698.187927 374.995148,718.607178 
	C373.982819,732.830750 372.885406,747.048279 371.786621,761.796997 
	C370.253479,760.740662 369.076050,759.929382 367.783081,758.831055 
z"/>
<path fill="#D51612" opacity="1.000000" stroke="none" 
	d="
M638.977051,517.461670 
	C639.793823,522.098572 640.659241,527.187317 641.320557,532.302551 
	C642.144775,538.677612 642.797852,545.074707 643.537048,551.460938 
	C643.574341,551.783447 643.808655,552.090698 643.815369,552.407959 
	C643.953918,558.886536 644.057312,565.365784 644.209351,571.843994 
	C644.236206,572.985596 644.494873,574.119934 644.570190,575.262695 
	C645.148071,584.022949 645.615967,592.791687 646.315247,601.542053 
	C646.610107,605.231018 647.528198,608.866943 647.904419,612.553345 
	C648.665955,620.015808 649.436340,627.486023 649.853455,634.972534 
	C650.221680,641.581238 649.822632,648.237732 650.300720,654.834045 
	C650.766418,661.259583 651.915955,667.635437 652.762085,674.033569 
	C652.827515,674.527954 652.906677,675.025085 652.913940,675.521851 
	C653.014404,682.355713 652.788879,689.212585 653.284424,696.017212 
	C653.771484,702.704956 654.989197,709.339355 655.880127,715.998047 
	C655.924133,716.326721 655.919678,716.663025 655.922058,716.995911 
	C655.971680,723.947144 655.994141,730.898743 656.091553,737.849243 
	C656.107483,738.986206 656.535950,740.111633 656.628113,741.254150 
	C656.942261,745.150269 656.976379,749.083679 657.550964,752.938232 
	C657.864258,755.039856 659.051636,757.011230 660.196411,758.981201 
	C659.491577,759.474731 658.435242,760.028381 657.378845,760.582031 
	C656.905457,759.457153 656.090942,758.356934 656.008118,757.204041 
	C653.268555,719.080322 650.641968,680.948425 647.905640,642.824524 
	C645.618164,610.953979 643.196289,579.093201 640.872681,547.225281 
	C640.160889,537.463379 639.577393,527.692200 638.977051,517.461670 
z"/>
<path fill="#D51612" opacity="1.000000" stroke="none" 
	d="
M814.997070,652.515686 
	C813.611572,646.235352 812.048279,639.544861 811.139893,632.766602 
	C809.897461,623.495605 809.007202,614.169678 808.251465,604.844177 
	C807.823120,599.559021 808.180359,594.211792 807.788025,588.921814 
	C807.420349,583.962402 806.396362,579.055237 805.899231,574.101196 
	C804.744934,562.597290 803.826294,551.069153 802.616638,539.571472 
	C802.181946,535.440063 800.880310,531.394958 800.510315,527.262512 
	C799.716370,518.393127 799.321960,509.488708 798.659546,500.606415 
	C798.365051,496.657440 797.779053,492.731110 797.394287,488.787750 
	C796.822693,482.930695 796.364624,477.062195 795.754333,471.209442 
	C795.439758,468.193024 794.913574,465.198059 794.459778,462.196930 
	C793.753052,457.523834 792.712952,452.875458 792.386536,448.176880 
	C791.959656,442.032379 792.090454,435.849121 792.012695,429.265991 
	C792.983643,434.464813 794.251465,440.048401 794.800415,445.701721 
	C796.370117,461.867493 797.426697,478.084503 799.097534,494.238678 
	C801.105225,513.650330 803.630981,533.007935 805.736206,552.410217 
	C806.467896,559.153320 806.397339,565.981812 807.080078,572.732239 
	C808.042297,582.245972 809.551880,591.704895 810.491638,601.220398 
	C812.164185,618.155945 813.585022,635.116394 814.997070,652.515686 
z"/>
<path fill="#D51612" opacity="1.000000" stroke="none" 
	d="
M789.907471,400.588593 
	C788.919067,399.953857 787.305847,399.011200 787.173767,397.893463 
	C786.002686,387.986267 784.963013,378.058594 784.162537,368.114594 
	C783.752869,363.026520 783.965149,357.890930 783.789673,352.780457 
	C783.691833,349.931946 783.375244,347.090973 783.515259,344.143799 
	C785.905396,362.760529 787.937439,381.479980 789.907471,400.588593 
z"/>
<path fill="#D51612" opacity="1.000000" stroke="none" 
	d="
M630.105469,276.676819 
	C630.114197,277.541626 630.162537,278.992981 629.505737,279.466797 
	C620.658264,285.849274 611.723999,292.112091 602.765381,298.338531 
	C602.163757,298.756714 601.193542,298.644653 600.041138,298.579590 
	C609.730774,291.189667 619.773987,283.999298 630.105469,276.676819 
z"/>
<path fill="#D51612" opacity="1.000000" stroke="none" 
	d="
M340.240479,269.670471 
	C340.230896,270.539703 340.183746,272.102966 339.521606,272.433258 
	C332.267334,276.051819 324.917114,279.478027 317.195282,282.901520 
	C324.504150,278.495056 332.210724,274.143494 340.240479,269.670471 
z"/>
<path fill="#D51612" opacity="1.000000" stroke="none" 
	d="
M237.327209,669.817749 
	C242.918457,673.317383 248.359787,677.005127 253.699066,681.065796 
	C248.123779,677.627686 242.650558,673.816772 237.327209,669.817749 
z"/>
<path fill="#D51612" opacity="1.000000" stroke="none" 
	d="
M765.036133,312.326416 
	C763.505249,312.328064 761.439026,312.600647 760.013367,311.771667 
	C756.266846,309.593018 752.799072,306.934814 749.153320,304.117798 
	C754.321899,306.543671 759.557312,309.319458 765.036133,312.326416 
z"/>
<path fill="#D51612" opacity="1.000000" stroke="none" 
	d="
M565.629883,613.158203 
	C567.386353,609.635498 569.218506,605.806946 571.531616,602.295105 
	C572.815308,600.346191 574.902100,598.926270 576.998352,597.238159 
	C573.548706,602.467163 569.727539,607.725952 565.629883,613.158203 
z"/>
<path fill="#D51612" opacity="1.000000" stroke="none" 
	d="
M585.397949,586.989746 
	C586.636597,581.363098 589.876404,576.742249 595.075195,573.338074 
	C592.192871,577.913147 588.941284,582.365967 585.397949,586.989746 
z"/>
<path fill="#D51612" opacity="1.000000" stroke="none" 
	d="
M265.836060,689.701843 
	C270.995392,689.681824 274.987549,692.175903 277.518768,697.126282 
	C273.567932,694.973328 269.803772,692.464783 265.836060,689.701843 
z"/>
<path fill="#D51612" opacity="1.000000" stroke="none" 
	d="
M534.370605,344.726288 
	C531.539124,347.359131 528.382080,350.101898 524.921082,352.947571 
	C527.759827,350.312378 530.902405,347.574310 534.370605,344.726288 
z"/>
<path fill="#D51612" opacity="1.000000" stroke="none" 
	d="
M547.052124,335.678101 
	C545.891602,339.844788 542.893860,342.240906 538.048340,342.698883 
	C540.703613,340.307404 543.736145,338.056946 547.052124,335.678101 
z"/>
<path fill="#D51612" opacity="1.000000" stroke="none" 
	d="
M589.136108,305.674316 
	C588.567078,310.599792 584.552856,311.786133 580.064087,312.743164 
	C582.734619,310.351196 585.789612,308.077911 589.136108,305.674316 
z"/>
<path fill="#D51612" opacity="1.000000" stroke="none" 
	d="
M559.614258,621.151001 
	C558.955505,617.197754 560.955933,614.633057 565.042725,613.284058 
	C563.574707,615.910706 561.732910,618.444336 559.614258,621.151001 
z"/>
<path fill="#D51612" opacity="1.000000" stroke="none" 
	d="
M547.366577,637.520386 
	C548.939087,634.806030 550.810791,631.999634 553.053589,629.294312 
	C551.505066,632.072937 549.585449,634.750610 547.366577,637.520386 
z"/>
<path fill="#D51612" opacity="1.000000" stroke="none" 
	d="
M577.620789,597.165161 
	C579.120667,594.625000 580.903198,591.913574 583.057983,589.312134 
	C581.587952,591.945984 579.745667,594.469971 577.620789,597.165161 
z"/>
<path fill="#D51612" opacity="1.000000" stroke="none" 
	d="
M303.573547,289.949219 
	C302.643066,294.146057 299.208069,294.846436 295.138214,294.935150 
	C297.639252,293.269806 300.434967,291.652344 303.573547,289.949219 
z"/>
<path fill="#D51612" opacity="1.000000" stroke="none" 
	d="
M349.610168,264.417480 
	C347.039001,266.186768 344.149292,268.043030 341.016113,269.668915 
	C343.612305,267.793854 346.451965,266.149139 349.610168,264.417480 
z"/>
<path fill="#D51612" opacity="1.000000" stroke="none" 
	d="
M253.882339,681.638306 
	C257.760620,681.408997 260.739624,683.281250 262.607208,687.131836 
	C259.674469,685.619629 256.877350,683.761902 253.882339,681.638306 
z"/>
<path fill="#D51612" opacity="1.000000" stroke="none" 
	d="
M284.199493,300.654602 
	C283.542847,305.063873 279.224304,304.417999 276.035034,305.618713 
	C278.499756,303.836273 281.192108,302.305634 284.199493,300.654602 
z"/>
<path fill="#D51612" opacity="1.000000" stroke="none" 
	d="
M264.332336,311.659882 
	C261.869751,313.333893 259.065582,315.086456 256.056946,316.567322 
	C258.565216,314.776520 261.277985,313.257507 264.332336,311.659882 
z"/>
<path fill="#D51612" opacity="1.000000" stroke="none" 
	d="
M703.025635,278.297699 
	C700.262817,277.140320 697.274841,275.749329 694.241821,273.991089 
	C697.064758,275.103943 699.932556,276.584015 703.025635,278.297699 
z"/>
<path fill="#D51612" opacity="1.000000" stroke="none" 
	d="
M572.286743,317.694000 
	C572.661987,321.795807 569.516663,322.290131 566.058594,322.768768 
	C567.771667,321.046997 569.873962,319.429779 572.286743,317.694000 
z"/>
<path fill="#D51612" opacity="1.000000" stroke="none" 
	d="
M292.592529,295.970367 
	C292.276062,300.207855 288.553772,300.015503 285.165680,300.803589 
	C287.260345,299.151123 289.755798,297.598999 292.592529,295.970367 
z"/>
<path fill="#D51612" opacity="1.000000" stroke="none" 
	d="
M313.155762,284.625244 
	C312.855865,288.558289 309.454651,288.326782 306.218384,288.918823 
	C308.155670,287.492157 310.495941,286.115387 313.155762,284.625244 
z"/>
<path fill="#D51612" opacity="1.000000" stroke="none" 
	d="
M579.266724,312.691467 
	C579.701599,316.804199 576.521667,317.260590 573.106506,317.788452 
	C574.800415,316.062775 576.881287,314.438965 579.266724,312.691467 
z"/>
<path fill="#D51612" opacity="1.000000" stroke="none" 
	d="
M599.010864,298.664734 
	C600.150269,302.747986 596.810364,302.260590 594.062439,302.748291 
	C595.361572,301.348572 597.049988,300.069122 599.010864,298.664734 
z"/>
<path fill="#D51612" opacity="1.000000" stroke="none" 
	d="
M275.318359,305.637817 
	C273.593628,306.975586 271.521301,308.382874 269.104126,309.646881 
	C270.829803,308.238190 272.900269,306.972748 275.318359,305.637817 
z"/>
<path fill="#D51612" opacity="1.000000" stroke="none" 
	d="
M709.930420,282.107910 
	C707.863525,281.309753 705.572083,280.317719 703.247314,278.968689 
	C705.377991,279.712463 707.541931,280.813263 709.930420,282.107910 
z"/>
<path fill="#D51612" opacity="1.000000" stroke="none" 
	d="
M253.372208,317.639771 
	C251.990555,318.702881 250.272675,319.837585 248.172485,320.908844 
	C249.538773,319.800720 251.287384,318.756042 253.372208,317.639771 
z"/>
<path fill="#D51612" opacity="1.000000" stroke="none" 
	d="
M714.827637,285.675354 
	C713.343445,285.078400 711.814087,284.146179 710.453613,282.868713 
	C712.009094,283.462311 713.395752,284.401184 714.827637,285.675354 
z"/>
<path fill="#D51612" opacity="1.000000" stroke="none" 
	d="
M558.271729,327.667969 
	C557.514832,328.637024 556.464783,329.717468 555.049438,330.605988 
	C555.782288,329.535797 556.880432,328.657562 558.271729,327.667969 
z"/>
<path fill="#D51612" opacity="1.000000" stroke="none" 
	d="
M565.339966,322.684143 
	C564.574036,323.656250 563.504822,324.730804 562.067749,325.633301 
	C562.812073,324.569672 563.924316,323.678101 565.339966,322.684143 
z"/>
<path fill="#D51612" opacity="1.000000" stroke="none" 
	d="
M593.294189,302.675232 
	C592.532227,303.648010 591.474487,304.733582 590.037903,305.658691 
	C590.772156,304.594849 591.885315,303.691437 593.294189,302.675232 
z"/>
<path fill="#D51612" opacity="1.000000" stroke="none" 
	d="
M556.668823,625.168213 
	C557.142822,623.953918 557.880432,622.570740 559.012085,621.269409 
	C558.581665,622.567383 557.757080,623.783447 556.668823,625.168213 
z"/>
<path fill="#D51612" opacity="1.000000" stroke="none" 
	d="
M634.626465,274.053375 
	C633.767456,275.007996 632.574036,275.908081 631.031982,276.636475 
	C631.886230,275.642792 633.089111,274.820831 634.626465,274.053375 
z"/>
<path fill="#D51612" opacity="1.000000" stroke="none" 
	d="
M791.830017,427.574921 
	C791.619629,426.707245 791.454590,425.445160 791.608032,424.099365 
	C791.909485,425.070618 791.892456,426.125549 791.830017,427.574921 
z"/>
<path fill="#D51612" opacity="1.000000" stroke="none" 
	d="
M638.639282,515.046448 
	C638.975098,515.435913 638.947754,515.871826 638.966431,516.631958 
	C638.220459,517.574768 637.428406,518.193359 636.346863,519.000305 
	C636.796997,517.823425 637.536560,516.458130 638.639282,515.046448 
z"/>
<path fill="#D51612" opacity="1.000000" stroke="none" 
	d="
M215.136612,655.261658 
	C216.095779,655.581177 217.241989,656.138000 218.127472,656.887085 
	C217.019073,656.552551 216.171356,656.025696 215.136612,655.261658 
z"/>
<path fill="#D51612" opacity="1.000000" stroke="none" 
	d="
M365.216797,757.140015 
	C365.574615,756.528687 366.131134,756.100830 366.687683,755.673035 
	C366.995209,756.429504 367.302704,757.185913 367.385895,758.216125 
	C366.579529,758.101074 365.997498,757.712280 365.216797,757.140015 
z"/>
<path fill="#D51612" opacity="1.000000" stroke="none" 
	d="
M749.000732,303.566162 
	C747.858582,303.374084 746.529785,302.897827 745.132507,302.115051 
	C746.314087,302.299683 747.564087,302.790802 749.000732,303.566162 
z"/>
<path fill="#D51612" opacity="1.000000" stroke="none" 
	d="
M561.088074,325.652161 
	C560.628784,326.318115 559.930969,327.098206 558.973877,327.642273 
	C559.426270,326.859619 560.137878,326.312988 561.088074,325.652161 
z"/>
<path fill="#D51612" opacity="1.000000" stroke="none" 
	d="
M277.808899,697.839966 
	C278.544495,697.999451 279.463348,698.349915 280.114105,698.896912 
	C279.228058,698.739319 278.610107,698.385193 277.808899,697.839966 
z"/>
<path fill="#D51612" opacity="1.000000" stroke="none" 
	d="
M550.017334,333.621887 
	C549.651367,334.280914 549.036987,335.039001 548.052917,335.608673 
	C548.378418,334.853790 549.073608,334.287354 550.017334,333.621887 
z"/>
<path fill="#D51612" opacity="1.000000" stroke="none" 
	d="
M554.103516,330.655762 
	C553.723511,331.312683 553.085449,332.083710 552.052490,332.738129 
	C552.386841,332.004303 553.116150,331.387085 554.103516,330.655762 
z"/>
<path fill="#D51612" opacity="1.000000" stroke="none" 
	d="
M268.243561,309.534485 
	C267.442566,310.296936 266.343781,311.082581 265.034363,311.618408 
	C265.864380,310.764954 266.905090,310.161316 268.243561,309.534485 
z"/>
<path fill="#D51612" opacity="1.000000" stroke="none" 
	d="
M553.635132,629.206787 
	C553.827454,628.337219 554.280151,627.322632 555.104248,626.489258 
	C554.948914,627.467590 554.422180,628.264648 553.635132,629.206787 
z"/>
<path fill="#D51612" opacity="1.000000" stroke="none" 
	d="
M537.233765,342.648132 
	C536.842224,343.320984 536.174377,344.108154 535.109009,344.816162 
	C535.460205,344.078796 536.208801,343.420624 537.233765,342.648132 
z"/>
<path fill="#D51612" opacity="1.000000" stroke="none" 
	d="
M316.592224,282.826294 
	C315.997375,283.449402 315.107788,284.147614 314.008118,284.597595 
	C314.631195,283.866669 315.464355,283.384003 316.592224,282.826294 
z"/>
<path fill="#D51612" opacity="1.000000" stroke="none" 
	d="
M262.966217,687.841675 
	C263.740417,688.039673 264.729370,688.422791 265.676422,689.143005 
	C264.816681,688.995605 263.998810,688.511230 262.966217,687.841675 
z"/>
<path fill="#D51612" opacity="1.000000" stroke="none" 
	d="
M545.012878,639.696350 
	C544.502686,639.743469 544.134827,639.547791 543.766907,639.352051 
	C544.308899,638.942810 544.850952,638.533569 545.663696,638.062134 
	C545.674622,638.484436 545.414917,638.968933 545.012878,639.696350 
z"/>
<path fill="#D51612" opacity="1.000000" stroke="none" 
	d="
M583.637573,589.210022 
	C583.736267,588.604736 584.088013,587.852478 584.803345,587.101135 
	C584.741516,587.755737 584.316101,588.409363 583.637573,589.210022 
z"/>
<path fill="#D51612" opacity="1.000000" stroke="none" 
	d="
M694.177979,273.447113 
	C693.610291,273.433868 692.907654,273.181732 692.136597,272.617371 
	C692.726501,272.606140 693.384705,272.907166 694.177979,273.447113 
z"/>
<path fill="#D51612" opacity="1.000000" stroke="none" 
	d="
M390.956329,517.321228 
	C391.409546,517.590393 391.915894,518.140442 392.218384,518.832947 
	C391.679474,518.517700 391.344482,518.059875 390.956329,517.321228 
z"/>
<path fill="#D51612" opacity="1.000000" stroke="none" 
	d="
M255.352478,316.570251 
	C255.242493,316.982269 254.836624,317.419891 254.083298,317.768738 
	C254.176102,317.318604 254.616364,316.957214 255.352478,316.570251 
z"/>
<path fill="#D51612" opacity="1.000000" stroke="none" 
	d="
M745.012878,301.610229 
	C744.547791,301.744202 743.937805,301.591766 743.182983,301.147278 
	C743.648071,301.011414 744.258057,301.167572 745.012878,301.610229 
z"/>
<path fill="#D51612" opacity="1.000000" stroke="none" 
	d="
M294.652771,294.883606 
	C294.478973,295.176483 294.008606,295.539093 293.213501,295.920959 
	C293.377869,295.611267 293.867035,295.282318 294.652771,294.883606 
z"/>
<path fill="#D51612" opacity="1.000000" stroke="none" 
	d="
M305.635986,288.850769 
	C305.467468,289.160004 304.997131,289.542023 304.194946,289.921448 
	C304.353424,289.587067 304.843781,289.255310 305.635986,288.850769 
z"/>
<path fill="#D51612" opacity="1.000000" stroke="none" 
	d="
M633.328979,523.004272 
	C633.270874,522.555298 633.482056,521.943787 634.023926,521.242310 
	C634.102478,521.715454 633.850403,522.278625 633.328979,523.004272 
z"/>
<path fill="#D51612" opacity="1.000000" stroke="none" 
	d="
M555.530273,626.335083 
	C555.383484,625.952820 555.560974,625.616821 556.041504,625.250244 
	C556.181213,625.606873 556.017822,625.994080 555.530273,626.335083 
z"/>
<path fill="#D51612" opacity="1.000000" stroke="none" 
	d="
M551.437256,332.710449 
	C551.624268,332.998535 551.483032,333.350586 551.052612,333.780029 
	C550.878601,333.496399 550.993774,333.135406 551.437256,332.710449 
z"/>
<path fill="#D51612" opacity="1.000000" stroke="none" 
	d="
M595.562500,573.229309 
	C595.350525,572.972107 595.424133,572.627197 595.738281,572.153931 
	C595.935303,572.397644 595.891724,572.769592 595.562500,573.229309 
z"/>
<path fill="#D51612" opacity="1.000000" stroke="none" 
	d="
M236.446564,668.803589 
	C236.432785,668.552429 236.750397,668.351807 237.237366,668.386414 
	C237.197144,668.699219 236.987549,668.776733 236.446564,668.803589 
z"/>
<path fill="#D51612" opacity="1.000000" stroke="none" 
	d="
M631.147888,525.836304 
	C630.861145,525.772949 630.719788,525.564575 630.578430,525.356201 
	C630.710266,525.314148 630.842102,525.272095 631.188599,525.262939 
	C631.403259,525.295715 631.293213,525.691345 631.147888,525.836304 
z"/>
<path fill="#D51612" opacity="1.000000" stroke="none" 
	d="
M631.409668,525.192017 
	C631.323242,524.919312 631.539307,524.594177 632.044800,524.180481 
	C632.126770,524.441162 631.919495,524.790344 631.409668,525.192017 
z"/>
<path fill="#D51612" opacity="1.000000" stroke="none" 
	d="
M634.422607,521.193359 
	C634.322815,520.918823 634.520508,520.588318 635.002808,520.166199 
	C635.098389,520.428833 634.909241,520.783142 634.422607,521.193359 
z"/>
</svg>